<?xml version="1.0" encoding="UTF-8"?>
<svg xmlns="http://www.w3.org/2000/svg" xmlns:xlink="http://www.w3.org/1999/xlink" width="297.000mm" height="210.000mm" viewBox="4.587006 -214.130005 297.000000 210.000000">
    <rect transform="matrix(1,0,0,-1,153.087006,-109.129997)" style="stroke:#000000;stroke-width:0.05mm;fill:none" x="-148.5" y="-105" width="297" height="210"/>
    <path transform="matrix(-0,1,1,0,101.85199,-164.723938)" style="stroke:#0000ff;stroke-width:0.05mm;fill:none" d="M38.601662,-56.659199L54.101662,-56.659199L54.101662,-43.959198L38.601662,-43.959198L38.601662,-56.659199"/>
    <path transform="matrix(-0,1,1,0,101.85199,-164.723938)" style="stroke:#0000ff;stroke-width:0.05mm;fill:none" d="M38.601662,-37.459198L54.101662,-37.459198L54.101662,-24.759199L38.601662,-24.759199L38.601662,-37.459198"/>
    <path transform="matrix(-0,1,1,0,101.85199,-164.723938)" style="stroke:#0000ff;stroke-width:0.05mm;fill:none" d="M38.601662,-18.259197L54.101662,-18.259197L54.101662,-5.5592L38.601662,-5.5592L38.601662,-18.259197"/>
    <path transform="matrix(-0,1,1,0,101.85199,-164.723938)" style="stroke:#0000ff;stroke-width:0.05mm;fill:none" d="M58.101662,-56.659199L73.601662,-56.659199L73.601662,-43.959198L58.101662,-43.959198L58.101662,-56.659199"/>
    <path transform="matrix(-0,1,1,0,101.85199,-164.723938)" style="stroke:#0000ff;stroke-width:0.05mm;fill:none" d="M58.101662,-37.459198L73.601662,-37.459198L73.601662,-24.759199L58.101662,-24.759199L58.101662,-37.459198"/>
    <path transform="matrix(-0,1,1,0,101.85199,-164.723938)" style="stroke:#0000ff;stroke-width:0.05mm;fill:none" d="M58.101662,-18.259197L73.601662,-18.259197L73.601662,-5.5592L58.101662,-5.5592L58.101662,-18.259197"/>
    <path transform="matrix(-0,1,1,0,101.85199,-164.723938)" style="stroke:#0000ff;stroke-width:0.05mm;fill:none" d="M77.601662,-56.659199L93.101662,-56.659199L93.101662,-43.959198L77.601662,-43.959198L77.601662,-56.659199"/>
    <path transform="matrix(-0,1,1,0,101.85199,-164.723938)" style="stroke:#0000ff;stroke-width:0.05mm;fill:none" d="M77.601662,-37.459198L93.101662,-37.459198L93.101662,-24.759199L77.601662,-24.759199L77.601662,-37.459198"/>
    <path transform="matrix(-0,1,1,0,101.85199,-164.723938)" style="stroke:#0000ff;stroke-width:0.05mm;fill:none" d="M77.601662,-18.259197L93.101662,-18.259197L93.101662,-5.5592L77.601662,-5.5592L77.601662,-18.259197"/>
    <path transform="matrix(-0,1,1,0,101.85199,-164.723938)" style="stroke:#0000ff;stroke-width:0.05mm;fill:none" d="M97.101662,-56.659199L112.601662,-56.659199L112.601662,-43.959198L97.101662,-43.959198L97.101662,-56.659199"/>
    <path transform="matrix(-0,1,1,0,101.85199,-164.723938)" style="stroke:#0000ff;stroke-width:0.05mm;fill:none" d="M97.101662,-37.459198L112.601662,-37.459198L112.601662,-24.759199L97.101662,-24.759199L97.101662,-37.459198"/>
    <path transform="matrix(-0,1,1,0,101.85199,-164.723938)" style="stroke:#0000ff;stroke-width:0.05mm;fill:none" d="M97.101662,-18.259197L112.601662,-18.259197L112.601662,-5.5592L97.101662,-5.5592L97.101662,-18.259197"/>
    <path transform="matrix(-0,1,1,0,101.85199,-164.723938)" style="stroke:#0000ff;stroke-width:0.05mm;fill:none" d="M18.69277,-72.026413L33.258007,-66.725105L37.601662,-78.659195L23.036427,-83.96051L18.69277,-72.026413"/>
    <path transform="matrix(-0,1,1,0,101.85199,-164.723938)" style="stroke:#0000ff;stroke-width:0.05mm;fill:none" d="M12.125984,-53.984318L26.691219,-48.683006L31.034874,-60.6171L16.469639,-65.918411L12.125984,-53.984318"/>
    <path transform="matrix(-0,1,1,0,101.85199,-164.723938)" style="stroke:#0000ff;stroke-width:0.05mm;fill:none" d="M5.559196,-35.942219L20.124432,-30.640905L24.468088,-42.575001L9.902853,-47.876312L5.559196,-35.942219"/>
    <path transform="matrix(-0,1,1,0,101.85199,-164.723938)" style="stroke:#0000ff;stroke-width:0.05mm;fill:none" d="M99.806992,-68.152138L115.07151,-70.843689L112.86618,-83.350746L97.601662,-80.659195L99.806992,-68.152138"/>
    <path transform="matrix(-0,1,1,0,101.85199,-164.723938)" style="stroke:#0000ff;stroke-width:0.05mm;fill:none" d="M119.010742,-71.538277L134.275269,-74.229828L132.069931,-86.736885L116.805412,-84.045334L119.010742,-71.538277"/>
    <path transform="matrix(-0,1,1,0,101.85199,-164.723938)" style="stroke:#0000ff;stroke-width:0.05mm;fill:none" d="M138.214493,-74.924423L153.479019,-77.615967L151.273682,-90.123024L136.009155,-87.43148L138.214493,-74.924423"/>
    <path transform="matrix(-0,1,1,0,101.85199,-164.723938)" style="stroke:#ff0000;stroke-width:0.05mm;fill:none" d="M1.559196,-1.5592L157.479019,-1.5592L157.479019,-94.123024L1.559196,-94.123024L1.559196,-1.5592"/>
    <path transform="matrix(-0,1,1,0,101.85199,-164.723938)" style="stroke:#0000ff;stroke-width:0.05mm;fill:none" d="M126.479019,-7.0592L144.479019,-7.0592L144.479019,-51.0592L126.479019,-51.0592L126.479019,-7.0592"/>
    <path transform="matrix(-0,1,1,0,197.85199,-164.723938)" style="stroke:#0000ff;stroke-width:0.05mm;fill:none" d="M38.601662,-56.659199L54.101662,-56.659199L54.101662,-43.959198L38.601662,-43.959198L38.601662,-56.659199"/>
    <path transform="matrix(-0,1,1,0,197.85199,-164.723938)" style="stroke:#0000ff;stroke-width:0.05mm;fill:none" d="M38.601662,-37.459198L54.101662,-37.459198L54.101662,-24.759199L38.601662,-24.759199L38.601662,-37.459198"/>
    <path transform="matrix(-0,1,1,0,197.85199,-164.723938)" style="stroke:#0000ff;stroke-width:0.05mm;fill:none" d="M38.601662,-18.259197L54.101662,-18.259197L54.101662,-5.5592L38.601662,-5.5592L38.601662,-18.259197"/>
    <path transform="matrix(-0,1,1,0,197.85199,-164.723938)" style="stroke:#0000ff;stroke-width:0.05mm;fill:none" d="M58.101662,-56.659199L73.601662,-56.659199L73.601662,-43.959198L58.101662,-43.959198L58.101662,-56.659199"/>
    <path transform="matrix(-0,1,1,0,197.85199,-164.723938)" style="stroke:#0000ff;stroke-width:0.05mm;fill:none" d="M58.101662,-37.459198L73.601662,-37.459198L73.601662,-24.759199L58.101662,-24.759199L58.101662,-37.459198"/>
    <path transform="matrix(-0,1,1,0,197.85199,-164.723938)" style="stroke:#0000ff;stroke-width:0.05mm;fill:none" d="M58.101662,-18.259197L73.601662,-18.259197L73.601662,-5.5592L58.101662,-5.5592L58.101662,-18.259197"/>
    <path transform="matrix(-0,1,1,0,197.85199,-164.723938)" style="stroke:#0000ff;stroke-width:0.05mm;fill:none" d="M77.601662,-56.659199L93.101662,-56.659199L93.101662,-43.959198L77.601662,-43.959198L77.601662,-56.659199"/>
    <path transform="matrix(-0,1,1,0,197.85199,-164.723938)" style="stroke:#0000ff;stroke-width:0.05mm;fill:none" d="M77.601662,-37.459198L93.101662,-37.459198L93.101662,-24.759199L77.601662,-24.759199L77.601662,-37.459198"/>
    <path transform="matrix(-0,1,1,0,197.85199,-164.723938)" style="stroke:#0000ff;stroke-width:0.05mm;fill:none" d="M77.601662,-18.259197L93.101662,-18.259197L93.101662,-5.5592L77.601662,-5.5592L77.601662,-18.259197"/>
    <path transform="matrix(-0,1,1,0,197.85199,-164.723938)" style="stroke:#0000ff;stroke-width:0.05mm;fill:none" d="M97.101662,-56.659199L112.601662,-56.659199L112.601662,-43.959198L97.101662,-43.959198L97.101662,-56.659199"/>
    <path transform="matrix(-0,1,1,0,197.85199,-164.723938)" style="stroke:#0000ff;stroke-width:0.05mm;fill:none" d="M97.101662,-37.459198L112.601662,-37.459198L112.601662,-24.759199L97.101662,-24.759199L97.101662,-37.459198"/>
    <path transform="matrix(-0,1,1,0,197.85199,-164.723938)" style="stroke:#0000ff;stroke-width:0.05mm;fill:none" d="M97.101662,-18.259197L112.601662,-18.259197L112.601662,-5.5592L97.101662,-5.5592L97.101662,-18.259197"/>
    <path transform="matrix(-0,1,1,0,197.85199,-164.723938)" style="stroke:#0000ff;stroke-width:0.05mm;fill:none" d="M18.69277,-72.026413L33.258007,-66.725105L37.601662,-78.659195L23.036427,-83.96051L18.69277,-72.026413"/>
    <path transform="matrix(-0,1,1,0,197.85199,-164.723938)" style="stroke:#0000ff;stroke-width:0.05mm;fill:none" d="M12.125984,-53.984318L26.691219,-48.683006L31.034874,-60.6171L16.469639,-65.918411L12.125984,-53.984318"/>
    <path transform="matrix(-0,1,1,0,197.85199,-164.723938)" style="stroke:#0000ff;stroke-width:0.05mm;fill:none" d="M5.559196,-35.942219L20.124432,-30.640905L24.468088,-42.575001L9.902853,-47.876312L5.559196,-35.942219"/>
    <path transform="matrix(-0,1,1,0,197.85199,-164.723938)" style="stroke:#0000ff;stroke-width:0.05mm;fill:none" d="M99.806992,-68.152138L115.07151,-70.843689L112.86618,-83.350746L97.601662,-80.659195L99.806992,-68.152138"/>
    <path transform="matrix(-0,1,1,0,197.85199,-164.723938)" style="stroke:#0000ff;stroke-width:0.05mm;fill:none" d="M119.010742,-71.538277L134.275269,-74.229828L132.069931,-86.736885L116.805412,-84.045334L119.010742,-71.538277"/>
    <path transform="matrix(-0,1,1,0,197.85199,-164.723938)" style="stroke:#0000ff;stroke-width:0.05mm;fill:none" d="M138.214493,-74.924423L153.479019,-77.615967L151.273682,-90.123024L136.009155,-87.43148L138.214493,-74.924423"/>
    <path transform="matrix(-0,1,1,0,197.85199,-164.723938)" style="stroke:#ff0000;stroke-width:0.05mm;fill:none" d="M1.559196,-1.5592L157.479019,-1.5592L157.479019,-94.123024L1.559196,-94.123024L1.559196,-1.5592"/>
    <path transform="matrix(-0,1,1,0,197.85199,-164.723938)" style="stroke:#0000ff;stroke-width:0.05mm;fill:none" d="M126.479019,-7.0592L144.479019,-7.0592L144.479019,-51.0592L126.479019,-51.0592L126.479019,-7.0592"/>
    <path transform="matrix(-0,-1,-1,0,509.155762,64.284668)" style="stroke:#0000ff;stroke-width:0.05mm;fill:none" d="M77.71106,304.719604L75.505722,292.212555L84.505707,265.655792L84.505692,221.655792L102.505692,221.655777L116.383049,220.155777L190.383057,220.155762L190.383057,232.855759L208.860291,245.237457L223.425522,250.538757L205.948303,298.557068L191.383072,293.255737L195.72673,281.321655L129.177734,282.748718L131.383072,295.255768L77.71106,304.719604z"/>
    <path transform="matrix(-0,1,1,0,294.559204,-164.700012)" style="stroke:#ff0000;stroke-width:0.05mm;fill:none" d="M1.559196,-1.5592L157.479019,-1.5592L157.479019,-94.123024L1.559196,-94.123024L1.559196,-1.5592"/>
</svg>
